<?xml version="1.0" encoding="utf-8"?>
<!-- Generator: Adobe Illustrator 25.3.1, SVG Export Plug-In . SVG Version: 6.00 Build 0)  -->
<svg version="1.1" id="Layer_1" xmlns="http://www.w3.org/2000/svg" xmlns:xlink="http://www.w3.org/1999/xlink" x="0px" y="0px"
	 viewBox="0 0 16 16" style="enable-background:new 0 0 16 16;" xml:space="preserve">
<g>
	<path d="M9.1,12.7C9.2,12.9,9.4,13,9.7,13c0.1,0,0.2,0,0.2-0.1c0.3-0.1,0.4-0.5,0.3-0.8c0,0-1.1-2.6-1.3-3.5
		C8.8,8.4,8.7,7.5,8.7,7.1c0-0.1,0.1-0.3,0.2-0.3l2.5-0.7c0.3-0.1,0.5-0.4,0.4-0.7c-0.1-0.3-0.4-0.5-0.7-0.4c0,0-2.3,0.7-3.1,0.7
		c-0.8,0-3.1-0.7-3.1-0.7C4.6,4.9,4.2,5,4.1,5.3C4,5.6,4.2,6,4.5,6.1L7,6.8c0.1,0,0.2,0.2,0.2,0.3c0,0.4-0.1,1.3-0.1,1.6
		c-0.2,0.9-1.3,3.5-1.3,3.5c-0.1,0.3,0,0.6,0.3,0.8C6.1,13,6.2,13,6.3,13c0.2,0,0.4-0.1,0.5-0.3L8,10.3L9.1,12.7z"/>
	<circle cx="8" cy="3.9" r="1.1"/>
	<path d="M16,8c0-4.4-3.6-8-8-8S0,3.6,0,8s3.6,8,8,8S16,12.4,16,8z M1.3,8c0-3.7,3-6.7,6.7-6.7s6.7,3,6.7,6.7s-3,6.7-6.7,6.7
		S1.3,11.7,1.3,8z"/>
</g>
</svg>
